<mxfile host="app.diagrams.net" modified="2024-06-25T21:47:17.413Z" agent="Mozilla/5.0 (Windows NT 10.0; Win64; x64) AppleWebKit/537.36 (KHTML, like Gecko) Chrome/126.0.0.0 Safari/537.36" etag="77vVZudL1cSGQIh6m61p" version="24.6.0" type="device">
  <diagram id="t-_ZcJbInoKslU83_P9I" name="Page-1">
    <mxGraphModel dx="2093" dy="933" grid="1" gridSize="10" guides="1" tooltips="1" connect="1" arrows="1" fold="1" page="1" pageScale="1" pageWidth="827" pageHeight="1169" math="0" shadow="0">
      <root>
        <mxCell id="0" />
        <mxCell id="1" parent="0" />
        <mxCell id="mRFj4ieMcZ93M_XwmbMW-1" value="Criptomoneda" style="swimlane;fontStyle=0;align=center;verticalAlign=top;childLayout=stackLayout;horizontal=1;startSize=26;horizontalStack=0;resizeParent=1;resizeLast=0;collapsible=1;marginBottom=0;rounded=0;shadow=0;strokeWidth=1;" vertex="1" parent="1">
          <mxGeometry x="687" y="521" width="160" height="130" as="geometry">
            <mxRectangle x="230" y="140" width="160" height="26" as="alternateBounds" />
          </mxGeometry>
        </mxCell>
        <mxCell id="mRFj4ieMcZ93M_XwmbMW-2" value="- nombre : String" style="text;align=left;verticalAlign=top;spacingLeft=4;spacingRight=4;overflow=hidden;rotatable=0;points=[[0,0.5],[1,0.5]];portConstraint=eastwest;" vertex="1" parent="mRFj4ieMcZ93M_XwmbMW-1">
          <mxGeometry y="26" width="160" height="26" as="geometry" />
        </mxCell>
        <mxCell id="mRFj4ieMcZ93M_XwmbMW-3" value="- simbolo : String" style="text;align=left;verticalAlign=top;spacingLeft=4;spacingRight=4;overflow=hidden;rotatable=0;points=[[0,0.5],[1,0.5]];portConstraint=eastwest;rounded=0;shadow=0;html=0;" vertex="1" parent="mRFj4ieMcZ93M_XwmbMW-1">
          <mxGeometry y="52" width="160" height="26" as="geometry" />
        </mxCell>
        <mxCell id="mRFj4ieMcZ93M_XwmbMW-4" value="- precio : BigDecimal" style="text;align=left;verticalAlign=top;spacingLeft=4;spacingRight=4;overflow=hidden;rotatable=0;points=[[0,0.5],[1,0.5]];portConstraint=eastwest;rounded=0;shadow=0;html=0;" vertex="1" parent="mRFj4ieMcZ93M_XwmbMW-1">
          <mxGeometry y="78" width="160" height="26" as="geometry" />
        </mxCell>
        <mxCell id="mRFj4ieMcZ93M_XwmbMW-5" value="" style="line;html=1;strokeWidth=1;align=left;verticalAlign=middle;spacingTop=-1;spacingLeft=3;spacingRight=3;rotatable=0;labelPosition=right;points=[];portConstraint=eastwest;" vertex="1" parent="mRFj4ieMcZ93M_XwmbMW-1">
          <mxGeometry y="104" width="160" height="8" as="geometry" />
        </mxCell>
        <mxCell id="mRFj4ieMcZ93M_XwmbMW-6" value="MenuPrincipal" style="swimlane;fontStyle=0;align=center;verticalAlign=top;childLayout=stackLayout;horizontal=1;startSize=31;horizontalStack=0;resizeParent=1;resizeLast=0;collapsible=1;marginBottom=0;rounded=0;shadow=0;strokeWidth=1;" vertex="1" parent="1">
          <mxGeometry x="687" y="1135" width="240" height="270" as="geometry">
            <mxRectangle x="130" y="380" width="160" height="26" as="alternateBounds" />
          </mxGeometry>
        </mxCell>
        <mxCell id="mRFj4ieMcZ93M_XwmbMW-7" value="" style="line;html=1;strokeWidth=1;align=left;verticalAlign=middle;spacingTop=-1;spacingLeft=3;spacingRight=3;rotatable=0;labelPosition=right;points=[];portConstraint=eastwest;" vertex="1" parent="mRFj4ieMcZ93M_XwmbMW-6">
          <mxGeometry y="31" width="240" height="18" as="geometry" />
        </mxCell>
        <mxCell id="mRFj4ieMcZ93M_XwmbMW-8" value="+ mostrarMenuPrincipal(Usuario)" style="text;align=left;verticalAlign=top;spacingLeft=4;spacingRight=4;overflow=hidden;rotatable=0;points=[[0,0.5],[1,0.5]];portConstraint=eastwest;fontStyle=2" vertex="1" parent="mRFj4ieMcZ93M_XwmbMW-6">
          <mxGeometry y="49" width="240" height="26" as="geometry" />
        </mxCell>
        <mxCell id="mRFj4ieMcZ93M_XwmbMW-9" value="- mostrarMenuAdministrador()" style="text;align=left;verticalAlign=top;spacingLeft=4;spacingRight=4;overflow=hidden;rotatable=0;points=[[0,0.5],[1,0.5]];portConstraint=eastwest;fontStyle=2" vertex="1" parent="mRFj4ieMcZ93M_XwmbMW-6">
          <mxGeometry y="75" width="240" height="26" as="geometry" />
        </mxCell>
        <mxCell id="mRFj4ieMcZ93M_XwmbMW-10" value="- mostrarMenuTrader()" style="text;align=left;verticalAlign=top;spacingLeft=4;spacingRight=4;overflow=hidden;rotatable=0;points=[[0,0.5],[1,0.5]];portConstraint=eastwest;fontStyle=2" vertex="1" parent="mRFj4ieMcZ93M_XwmbMW-6">
          <mxGeometry y="101" width="240" height="26" as="geometry" />
        </mxCell>
        <mxCell id="mRFj4ieMcZ93M_XwmbMW-11" value="- int obtenerOpcion(int)" style="text;align=left;verticalAlign=top;spacingLeft=4;spacingRight=4;overflow=hidden;rotatable=0;points=[[0,0.5],[1,0.5]];portConstraint=eastwest;fontStyle=2" vertex="1" parent="mRFj4ieMcZ93M_XwmbMW-6">
          <mxGeometry y="127" width="240" height="26" as="geometry" />
        </mxCell>
        <mxCell id="mRFj4ieMcZ93M_XwmbMW-12" value="- mostrarOpcionesAdministrador()" style="text;align=left;verticalAlign=top;spacingLeft=4;spacingRight=4;overflow=hidden;rotatable=0;points=[[0,0.5],[1,0.5]];portConstraint=eastwest;fontStyle=2" vertex="1" parent="mRFj4ieMcZ93M_XwmbMW-6">
          <mxGeometry y="153" width="240" height="26" as="geometry" />
        </mxCell>
        <mxCell id="mRFj4ieMcZ93M_XwmbMW-13" value="- mostrarOpcionesTrader()" style="text;align=left;verticalAlign=top;spacingLeft=4;spacingRight=4;overflow=hidden;rotatable=0;points=[[0,0.5],[1,0.5]];portConstraint=eastwest;fontStyle=2" vertex="1" parent="mRFj4ieMcZ93M_XwmbMW-6">
          <mxGeometry y="179" width="240" height="26" as="geometry" />
        </mxCell>
        <mxCell id="mRFj4ieMcZ93M_XwmbMW-14" value="- manejarOpcionesAdministrador(int)" style="text;align=left;verticalAlign=top;spacingLeft=4;spacingRight=4;overflow=hidden;rotatable=0;points=[[0,0.5],[1,0.5]];portConstraint=eastwest;fontStyle=2" vertex="1" parent="mRFj4ieMcZ93M_XwmbMW-6">
          <mxGeometry y="205" width="240" height="26" as="geometry" />
        </mxCell>
        <mxCell id="mRFj4ieMcZ93M_XwmbMW-15" value="- manejarOpcionesTrader(int)" style="text;align=left;verticalAlign=top;spacingLeft=4;spacingRight=4;overflow=hidden;rotatable=0;points=[[0,0.5],[1,0.5]];portConstraint=eastwest;fontStyle=2" vertex="1" parent="mRFj4ieMcZ93M_XwmbMW-6">
          <mxGeometry y="231" width="240" height="26" as="geometry" />
        </mxCell>
        <mxCell id="mRFj4ieMcZ93M_XwmbMW-16" value="Usuario" style="swimlane;fontStyle=0;align=center;verticalAlign=top;childLayout=stackLayout;horizontal=1;startSize=26;horizontalStack=0;resizeParent=1;resizeLast=0;collapsible=1;marginBottom=0;rounded=0;shadow=0;strokeWidth=1;" vertex="1" parent="1">
          <mxGeometry x="330" y="1190" width="160" height="80" as="geometry">
            <mxRectangle x="340" y="380" width="170" height="26" as="alternateBounds" />
          </mxGeometry>
        </mxCell>
        <mxCell id="mRFj4ieMcZ93M_XwmbMW-17" value="- nombre: string" style="text;align=left;verticalAlign=top;spacingLeft=4;spacingRight=4;overflow=hidden;rotatable=0;points=[[0,0.5],[1,0.5]];portConstraint=eastwest;" vertex="1" parent="mRFj4ieMcZ93M_XwmbMW-16">
          <mxGeometry y="26" width="160" height="26" as="geometry" />
        </mxCell>
        <mxCell id="mRFj4ieMcZ93M_XwmbMW-18" value="" style="line;html=1;strokeWidth=1;align=left;verticalAlign=middle;spacingTop=-1;spacingLeft=3;spacingRight=3;rotatable=0;labelPosition=right;points=[];portConstraint=eastwest;" vertex="1" parent="mRFj4ieMcZ93M_XwmbMW-16">
          <mxGeometry y="52" width="160" height="8" as="geometry" />
        </mxCell>
        <mxCell id="mRFj4ieMcZ93M_XwmbMW-19" value="Mercado" style="swimlane;fontStyle=0;align=center;verticalAlign=top;childLayout=stackLayout;horizontal=1;startSize=26;horizontalStack=0;resizeParent=1;resizeLast=0;collapsible=1;marginBottom=0;rounded=0;shadow=0;strokeWidth=1;" vertex="1" parent="1">
          <mxGeometry x="927" y="521" width="160" height="150" as="geometry">
            <mxRectangle x="550" y="140" width="160" height="26" as="alternateBounds" />
          </mxGeometry>
        </mxCell>
        <mxCell id="mRFj4ieMcZ93M_XwmbMW-20" value="- simbolo : String" style="text;align=left;verticalAlign=top;spacingLeft=4;spacingRight=4;overflow=hidden;rotatable=0;points=[[0,0.5],[1,0.5]];portConstraint=eastwest;rounded=0;shadow=0;html=0;" vertex="1" parent="mRFj4ieMcZ93M_XwmbMW-19">
          <mxGeometry y="26" width="160" height="26" as="geometry" />
        </mxCell>
        <mxCell id="mRFj4ieMcZ93M_XwmbMW-21" value="- capacidad : long" style="text;align=left;verticalAlign=top;spacingLeft=4;spacingRight=4;overflow=hidden;rotatable=0;points=[[0,0.5],[1,0.5]];portConstraint=eastwest;" vertex="1" parent="mRFj4ieMcZ93M_XwmbMW-19">
          <mxGeometry y="52" width="160" height="26" as="geometry" />
        </mxCell>
        <mxCell id="mRFj4ieMcZ93M_XwmbMW-22" value="- volumen :Â  float" style="text;align=left;verticalAlign=top;spacingLeft=4;spacingRight=4;overflow=hidden;rotatable=0;points=[[0,0.5],[1,0.5]];portConstraint=eastwest;rounded=0;shadow=0;html=0;" vertex="1" parent="mRFj4ieMcZ93M_XwmbMW-19">
          <mxGeometry y="78" width="160" height="26" as="geometry" />
        </mxCell>
        <mxCell id="mRFj4ieMcZ93M_XwmbMW-23" value="- variacion : float" style="text;align=left;verticalAlign=top;spacingLeft=4;spacingRight=4;overflow=hidden;rotatable=0;points=[[0,0.5],[1,0.5]];portConstraint=eastwest;rounded=0;shadow=0;html=0;" vertex="1" parent="mRFj4ieMcZ93M_XwmbMW-19">
          <mxGeometry y="104" width="160" height="26" as="geometry" />
        </mxCell>
        <mxCell id="mRFj4ieMcZ93M_XwmbMW-24" value="" style="line;html=1;strokeWidth=1;align=left;verticalAlign=middle;spacingTop=-1;spacingLeft=3;spacingRight=3;rotatable=0;labelPosition=right;points=[];portConstraint=eastwest;" vertex="1" parent="mRFj4ieMcZ93M_XwmbMW-19">
          <mxGeometry y="130" width="160" height="8" as="geometry" />
        </mxCell>
        <mxCell id="mRFj4ieMcZ93M_XwmbMW-25" value="UsuarioAdministrador" style="swimlane;fontStyle=0;align=center;verticalAlign=top;childLayout=stackLayout;horizontal=1;startSize=26;horizontalStack=0;resizeParent=1;resizeLast=0;collapsible=1;marginBottom=0;rounded=0;shadow=0;strokeWidth=1;" vertex="1" parent="1">
          <mxGeometry x="240" y="1370" width="160" height="80" as="geometry">
            <mxRectangle x="340" y="380" width="170" height="26" as="alternateBounds" />
          </mxGeometry>
        </mxCell>
        <mxCell id="mRFj4ieMcZ93M_XwmbMW-26" value="- rol: string" style="text;align=left;verticalAlign=top;spacingLeft=4;spacingRight=4;overflow=hidden;rotatable=0;points=[[0,0.5],[1,0.5]];portConstraint=eastwest;" vertex="1" parent="mRFj4ieMcZ93M_XwmbMW-25">
          <mxGeometry y="26" width="160" height="26" as="geometry" />
        </mxCell>
        <mxCell id="mRFj4ieMcZ93M_XwmbMW-27" value="" style="line;html=1;strokeWidth=1;align=left;verticalAlign=middle;spacingTop=-1;spacingLeft=3;spacingRight=3;rotatable=0;labelPosition=right;points=[];portConstraint=eastwest;" vertex="1" parent="mRFj4ieMcZ93M_XwmbMW-25">
          <mxGeometry y="52" width="160" height="8" as="geometry" />
        </mxCell>
        <mxCell id="mRFj4ieMcZ93M_XwmbMW-28" value="UsuarioTrader" style="swimlane;fontStyle=0;align=center;verticalAlign=top;childLayout=stackLayout;horizontal=1;startSize=26;horizontalStack=0;resizeParent=1;resizeLast=0;collapsible=1;marginBottom=0;rounded=0;shadow=0;strokeWidth=1;" vertex="1" parent="1">
          <mxGeometry x="420" y="1370" width="160" height="138" as="geometry">
            <mxRectangle x="340" y="380" width="170" height="26" as="alternateBounds" />
          </mxGeometry>
        </mxCell>
        <mxCell id="mRFj4ieMcZ93M_XwmbMW-29" value="- numeroCuenta : long" style="text;align=left;verticalAlign=top;spacingLeft=4;spacingRight=4;overflow=hidden;rotatable=0;points=[[0,0.5],[1,0.5]];portConstraint=eastwest;" vertex="1" parent="mRFj4ieMcZ93M_XwmbMW-28">
          <mxGeometry y="26" width="160" height="26" as="geometry" />
        </mxCell>
        <mxCell id="mRFj4ieMcZ93M_XwmbMW-30" value="- banco: string" style="text;align=left;verticalAlign=top;spacingLeft=4;spacingRight=4;overflow=hidden;rotatable=0;points=[[0,0.5],[1,0.5]];portConstraint=eastwest;" vertex="1" parent="mRFj4ieMcZ93M_XwmbMW-28">
          <mxGeometry y="52" width="160" height="26" as="geometry" />
        </mxCell>
        <mxCell id="mRFj4ieMcZ93M_XwmbMW-31" value="- saldo: BigDecimal" style="text;align=left;verticalAlign=top;spacingLeft=4;spacingRight=4;overflow=hidden;rotatable=0;points=[[0,0.5],[1,0.5]];portConstraint=eastwest;" vertex="1" parent="mRFj4ieMcZ93M_XwmbMW-28">
          <mxGeometry y="78" width="160" height="26" as="geometry" />
        </mxCell>
        <mxCell id="mRFj4ieMcZ93M_XwmbMW-32" value="" style="line;html=1;strokeWidth=1;align=left;verticalAlign=middle;spacingTop=-1;spacingLeft=3;spacingRight=3;rotatable=0;labelPosition=right;points=[];portConstraint=eastwest;" vertex="1" parent="mRFj4ieMcZ93M_XwmbMW-28">
          <mxGeometry y="104" width="160" height="8" as="geometry" />
        </mxCell>
        <mxCell id="mRFj4ieMcZ93M_XwmbMW-33" value="+ completarRegistro() : void" style="text;align=left;verticalAlign=top;spacingLeft=4;spacingRight=4;overflow=hidden;rotatable=0;points=[[0,0.5],[1,0.5]];portConstraint=eastwest;" vertex="1" parent="mRFj4ieMcZ93M_XwmbMW-28">
          <mxGeometry y="112" width="160" height="26" as="geometry" />
        </mxCell>
        <mxCell id="mRFj4ieMcZ93M_XwmbMW-34" value="" style="endArrow=block;endSize=16;endFill=0;html=1;rounded=0;exitX=0.549;exitY=0.011;exitDx=0;exitDy=0;exitPerimeter=0;" edge="1" parent="1" target="mRFj4ieMcZ93M_XwmbMW-16">
          <mxGeometry width="160" relative="1" as="geometry">
            <mxPoint x="507.8399999999997" y="1369.998" as="sourcePoint" />
            <mxPoint x="410" y="1268.4799999999998" as="targetPoint" />
            <Array as="points">
              <mxPoint x="508" y="1320" />
              <mxPoint x="410" y="1320" />
            </Array>
          </mxGeometry>
        </mxCell>
        <mxCell id="mRFj4ieMcZ93M_XwmbMW-35" value="" style="endArrow=block;endSize=16;endFill=0;html=1;rounded=0;exitX=0.5;exitY=0;exitDx=0;exitDy=0;" edge="1" parent="1" source="mRFj4ieMcZ93M_XwmbMW-25" target="mRFj4ieMcZ93M_XwmbMW-16">
          <mxGeometry width="160" relative="1" as="geometry">
            <mxPoint x="280" y="1383.5" as="sourcePoint" />
            <mxPoint x="390" y="1290" as="targetPoint" />
            <Array as="points">
              <mxPoint x="320" y="1320" />
              <mxPoint x="410" y="1320" />
            </Array>
          </mxGeometry>
        </mxCell>
        <mxCell id="mRFj4ieMcZ93M_XwmbMW-36" value="" style="endArrow=open;endSize=12;dashed=1;html=1;rounded=0;entryX=1;entryY=0.5;entryDx=0;entryDy=0;exitX=-0.002;exitY=0.725;exitDx=0;exitDy=0;exitPerimeter=0;" edge="1" parent="1" source="mRFj4ieMcZ93M_XwmbMW-9" target="mRFj4ieMcZ93M_XwmbMW-17">
          <mxGeometry width="160" relative="1" as="geometry">
            <mxPoint x="690" y="1229" as="sourcePoint" />
            <mxPoint x="960" y="1372.5" as="targetPoint" />
          </mxGeometry>
        </mxCell>
        <mxCell id="mRFj4ieMcZ93M_XwmbMW-37" value="Usa" style="edgeLabel;html=1;align=center;verticalAlign=middle;resizable=0;points=[];" vertex="1" connectable="0" parent="mRFj4ieMcZ93M_XwmbMW-36">
          <mxGeometry x="-0.0361" relative="1" as="geometry">
            <mxPoint as="offset" />
          </mxGeometry>
        </mxCell>
        <mxCell id="mRFj4ieMcZ93M_XwmbMW-38" value="SubmenuModificarCriptomoneda" style="swimlane;fontStyle=0;align=center;verticalAlign=top;childLayout=stackLayout;horizontal=1;startSize=31;horizontalStack=0;resizeParent=1;resizeLast=0;collapsible=1;marginBottom=0;rounded=0;shadow=0;strokeWidth=1;" vertex="1" parent="1">
          <mxGeometry x="1020" y="1135" width="230" height="179" as="geometry">
            <mxRectangle x="130" y="380" width="160" height="26" as="alternateBounds" />
          </mxGeometry>
        </mxCell>
        <mxCell id="mRFj4ieMcZ93M_XwmbMW-39" value="" style="line;html=1;strokeWidth=1;align=left;verticalAlign=middle;spacingTop=-1;spacingLeft=3;spacingRight=3;rotatable=0;labelPosition=right;points=[];portConstraint=eastwest;" vertex="1" parent="mRFj4ieMcZ93M_XwmbMW-38">
          <mxGeometry y="31" width="230" height="18" as="geometry" />
        </mxCell>
        <mxCell id="mRFj4ieMcZ93M_XwmbMW-40" value="+ mostrar()" style="text;align=left;verticalAlign=top;spacingLeft=4;spacingRight=4;overflow=hidden;rotatable=0;points=[[0,0.5],[1,0.5]];portConstraint=eastwest;fontStyle=2" vertex="1" parent="mRFj4ieMcZ93M_XwmbMW-38">
          <mxGeometry y="49" width="230" height="26" as="geometry" />
        </mxCell>
        <mxCell id="mRFj4ieMcZ93M_XwmbMW-41" value="- mostrarOpciones()" style="text;align=left;verticalAlign=top;spacingLeft=4;spacingRight=4;overflow=hidden;rotatable=0;points=[[0,0.5],[1,0.5]];portConstraint=eastwest;fontStyle=2" vertex="1" parent="mRFj4ieMcZ93M_XwmbMW-38">
          <mxGeometry y="75" width="230" height="26" as="geometry" />
        </mxCell>
        <mxCell id="mRFj4ieMcZ93M_XwmbMW-42" value="- manejarOpciones(int)" style="text;align=left;verticalAlign=top;spacingLeft=4;spacingRight=4;overflow=hidden;rotatable=0;points=[[0,0.5],[1,0.5]];portConstraint=eastwest;fontStyle=2" vertex="1" parent="mRFj4ieMcZ93M_XwmbMW-38">
          <mxGeometry y="101" width="230" height="26" as="geometry" />
        </mxCell>
        <mxCell id="mRFj4ieMcZ93M_XwmbMW-89" value="+ subMenuModificar()" style="text;align=left;verticalAlign=top;spacingLeft=4;spacingRight=4;overflow=hidden;rotatable=0;points=[[0,0.5],[1,0.5]];portConstraint=eastwest;fontStyle=2" vertex="1" parent="mRFj4ieMcZ93M_XwmbMW-38">
          <mxGeometry y="127" width="230" height="26" as="geometry" />
        </mxCell>
        <mxCell id="mRFj4ieMcZ93M_XwmbMW-90" value="+ mostrarSubMenuCriptoExistente(String,Criptomoneda)" style="text;align=left;verticalAlign=top;spacingLeft=4;spacingRight=4;overflow=hidden;rotatable=0;points=[[0,0.5],[1,0.5]];portConstraint=eastwest;fontStyle=2" vertex="1" parent="mRFj4ieMcZ93M_XwmbMW-38">
          <mxGeometry y="153" width="230" height="26" as="geometry" />
        </mxCell>
        <mxCell id="mRFj4ieMcZ93M_XwmbMW-43" value="Usa" style="endArrow=open;endSize=12;dashed=1;html=1;rounded=0;entryX=0;entryY=0.5;entryDx=0;entryDy=0;exitX=1;exitY=0.5;exitDx=0;exitDy=0;" edge="1" parent="1" source="mRFj4ieMcZ93M_XwmbMW-8" target="mRFj4ieMcZ93M_XwmbMW-40">
          <mxGeometry width="160" relative="1" as="geometry">
            <mxPoint x="927.0000000000005" y="1260" as="sourcePoint" />
            <mxPoint x="1092.0000000000005" y="1260" as="targetPoint" />
          </mxGeometry>
        </mxCell>
        <mxCell id="mRFj4ieMcZ93M_XwmbMW-44" value="Archivo" style="swimlane;fontStyle=0;align=center;verticalAlign=top;childLayout=stackLayout;horizontal=1;startSize=26;horizontalStack=0;resizeParent=1;resizeLast=0;collapsible=1;marginBottom=0;rounded=0;shadow=0;strokeWidth=1;" vertex="1" parent="1">
          <mxGeometry x="120" y="607" width="255" height="528" as="geometry">
            <mxRectangle x="230" y="140" width="160" height="26" as="alternateBounds" />
          </mxGeometry>
        </mxCell>
        <mxCell id="mRFj4ieMcZ93M_XwmbMW-45" value="- instancia: Archivo" style="text;align=left;verticalAlign=top;spacingLeft=4;spacingRight=4;overflow=hidden;rotatable=0;points=[[0,0.5],[1,0.5]];portConstraint=eastwest;fontStyle=2" vertex="1" parent="mRFj4ieMcZ93M_XwmbMW-44">
          <mxGeometry y="26" width="255" height="26" as="geometry" />
        </mxCell>
        <mxCell id="mRFj4ieMcZ93M_XwmbMW-46" value="- listaCriptomoneda: List&lt;Criptomoneda&gt;Â " style="text;align=left;verticalAlign=top;spacingLeft=4;spacingRight=4;overflow=hidden;rotatable=0;points=[[0,0.5],[1,0.5]];portConstraint=eastwest;rounded=0;shadow=0;html=0;" vertex="1" parent="mRFj4ieMcZ93M_XwmbMW-44">
          <mxGeometry y="52" width="255" height="26" as="geometry" />
        </mxCell>
        <mxCell id="mRFj4ieMcZ93M_XwmbMW-47" value="- listaMercados: List&lt;Mercado&gt;Â " style="text;align=left;verticalAlign=top;spacingLeft=4;spacingRight=4;overflow=hidden;rotatable=0;points=[[0,0.5],[1,0.5]];portConstraint=eastwest;rounded=0;shadow=0;html=0;" vertex="1" parent="mRFj4ieMcZ93M_XwmbMW-44">
          <mxGeometry y="78" width="255" height="26" as="geometry" />
        </mxCell>
        <mxCell id="mRFj4ieMcZ93M_XwmbMW-129" value="- listaHistorico: List&lt;Historico&gt;Â " style="text;align=left;verticalAlign=top;spacingLeft=4;spacingRight=4;overflow=hidden;rotatable=0;points=[[0,0.5],[1,0.5]];portConstraint=eastwest;rounded=0;shadow=0;html=0;" vertex="1" parent="mRFj4ieMcZ93M_XwmbMW-44">
          <mxGeometry y="104" width="255" height="26" as="geometry" />
        </mxCell>
        <mxCell id="mRFj4ieMcZ93M_XwmbMW-130" value="- usuario: Usuario" style="text;align=left;verticalAlign=top;spacingLeft=4;spacingRight=4;overflow=hidden;rotatable=0;points=[[0,0.5],[1,0.5]];portConstraint=eastwest;rounded=0;shadow=0;html=0;" vertex="1" parent="mRFj4ieMcZ93M_XwmbMW-44">
          <mxGeometry y="130" width="255" height="26" as="geometry" />
        </mxCell>
        <mxCell id="mRFj4ieMcZ93M_XwmbMW-48" value="" style="line;html=1;strokeWidth=1;align=left;verticalAlign=middle;spacingTop=-1;spacingLeft=3;spacingRight=3;rotatable=0;labelPosition=right;points=[];portConstraint=eastwest;" vertex="1" parent="mRFj4ieMcZ93M_XwmbMW-44">
          <mxGeometry y="156" width="255" height="8" as="geometry" />
        </mxCell>
        <mxCell id="mRFj4ieMcZ93M_XwmbMW-49" value="+ getInstancia(): Archivo" style="text;align=left;verticalAlign=top;spacingLeft=4;spacingRight=4;overflow=hidden;rotatable=0;points=[[0,0.5],[1,0.5]];portConstraint=eastwest;fontStyle=2" vertex="1" parent="mRFj4ieMcZ93M_XwmbMW-44">
          <mxGeometry y="164" width="255" height="26" as="geometry" />
        </mxCell>
        <mxCell id="mRFj4ieMcZ93M_XwmbMW-50" value="+ getListaCriptomoneda(): List&lt;Criptomoneda&gt;Â " style="text;align=left;verticalAlign=top;spacingLeft=4;spacingRight=4;overflow=hidden;rotatable=0;points=[[0,0.5],[1,0.5]];portConstraint=eastwest;fontStyle=0" vertex="1" parent="mRFj4ieMcZ93M_XwmbMW-44">
          <mxGeometry y="190" width="255" height="26" as="geometry" />
        </mxCell>
        <mxCell id="mRFj4ieMcZ93M_XwmbMW-51" value="+ getListaMercados(): List&lt;Mercado&gt;" style="text;align=left;verticalAlign=top;spacingLeft=4;spacingRight=4;overflow=hidden;rotatable=0;points=[[0,0.5],[1,0.5]];portConstraint=eastwest;fontStyle=0" vertex="1" parent="mRFj4ieMcZ93M_XwmbMW-44">
          <mxGeometry y="216" width="255" height="26" as="geometry" />
        </mxCell>
        <mxCell id="mRFj4ieMcZ93M_XwmbMW-131" value="+ getListaHistorico(): List&lt;Historico&gt;" style="text;align=left;verticalAlign=top;spacingLeft=4;spacingRight=4;overflow=hidden;rotatable=0;points=[[0,0.5],[1,0.5]];portConstraint=eastwest;fontStyle=0" vertex="1" parent="mRFj4ieMcZ93M_XwmbMW-44">
          <mxGeometry y="242" width="255" height="26" as="geometry" />
        </mxCell>
        <mxCell id="mRFj4ieMcZ93M_XwmbMW-132" value="+ getUsuario(): Usuario" style="text;align=left;verticalAlign=top;spacingLeft=4;spacingRight=4;overflow=hidden;rotatable=0;points=[[0,0.5],[1,0.5]];portConstraint=eastwest;fontStyle=0" vertex="1" parent="mRFj4ieMcZ93M_XwmbMW-44">
          <mxGeometry y="268" width="255" height="26" as="geometry" />
        </mxCell>
        <mxCell id="mRFj4ieMcZ93M_XwmbMW-52" value="+ obtenerORegistrarUsuario()" style="text;align=left;verticalAlign=top;spacingLeft=4;spacingRight=4;overflow=hidden;rotatable=0;points=[[0,0.5],[1,0.5]];portConstraint=eastwest;fontStyle=2" vertex="1" parent="mRFj4ieMcZ93M_XwmbMW-44">
          <mxGeometry y="294" width="255" height="26" as="geometry" />
        </mxCell>
        <mxCell id="mRFj4ieMcZ93M_XwmbMW-53" value="+ guardarCambiosCriptomoneda()" style="text;align=left;verticalAlign=top;spacingLeft=4;spacingRight=4;overflow=hidden;rotatable=0;points=[[0,0.5],[1,0.5]];portConstraint=eastwest;fontStyle=0" vertex="1" parent="mRFj4ieMcZ93M_XwmbMW-44">
          <mxGeometry y="320" width="255" height="26" as="geometry" />
        </mxCell>
        <mxCell id="mRFj4ieMcZ93M_XwmbMW-54" value="+ guardarCambiosMercado()" style="text;align=left;verticalAlign=top;spacingLeft=4;spacingRight=4;overflow=hidden;rotatable=0;points=[[0,0.5],[1,0.5]];portConstraint=eastwest;fontStyle=0" vertex="1" parent="mRFj4ieMcZ93M_XwmbMW-44">
          <mxGeometry y="346" width="255" height="26" as="geometry" />
        </mxCell>
        <mxCell id="mRFj4ieMcZ93M_XwmbMW-55" value="+ obtenerListaCriptomonedasDeArchivo()" style="text;align=left;verticalAlign=top;spacingLeft=4;spacingRight=4;overflow=hidden;rotatable=0;points=[[0,0.5],[1,0.5]];portConstraint=eastwest;fontStyle=0" vertex="1" parent="mRFj4ieMcZ93M_XwmbMW-44">
          <mxGeometry y="372" width="255" height="26" as="geometry" />
        </mxCell>
        <mxCell id="mRFj4ieMcZ93M_XwmbMW-56" value="+ obtenerListaMercadosDeArchivo()" style="text;align=left;verticalAlign=top;spacingLeft=4;spacingRight=4;overflow=hidden;rotatable=0;points=[[0,0.5],[1,0.5]];portConstraint=eastwest;fontStyle=0" vertex="1" parent="mRFj4ieMcZ93M_XwmbMW-44">
          <mxGeometry y="398" width="255" height="26" as="geometry" />
        </mxCell>
        <mxCell id="mRFj4ieMcZ93M_XwmbMW-57" value="" style="endArrow=open;endSize=12;dashed=1;html=1;rounded=0;exitX=0.25;exitY=0;exitDx=0;exitDy=0;" edge="1" parent="mRFj4ieMcZ93M_XwmbMW-44" source="mRFj4ieMcZ93M_XwmbMW-44">
          <mxGeometry width="160" relative="1" as="geometry">
            <mxPoint x="24" y="372" as="sourcePoint" />
            <mxPoint y="58" as="targetPoint" />
            <Array as="points">
              <mxPoint x="64" y="-50" />
              <mxPoint x="-80" y="-50" />
              <mxPoint x="-80" y="60" />
            </Array>
          </mxGeometry>
        </mxCell>
        <mxCell id="mRFj4ieMcZ93M_XwmbMW-58" value="Usa" style="edgeLabel;html=1;align=center;verticalAlign=middle;resizable=0;points=[];" vertex="1" connectable="0" parent="mRFj4ieMcZ93M_XwmbMW-57">
          <mxGeometry x="-0.0361" relative="1" as="geometry">
            <mxPoint as="offset" />
          </mxGeometry>
        </mxCell>
        <mxCell id="mRFj4ieMcZ93M_XwmbMW-133" value="+ guardarCambiosArchivoUsuario()" style="text;align=left;verticalAlign=top;spacingLeft=4;spacingRight=4;overflow=hidden;rotatable=0;points=[[0,0.5],[1,0.5]];portConstraint=eastwest;fontStyle=0" vertex="1" parent="mRFj4ieMcZ93M_XwmbMW-44">
          <mxGeometry y="424" width="255" height="26" as="geometry" />
        </mxCell>
        <mxCell id="mRFj4ieMcZ93M_XwmbMW-134" value="+ crearArchivoHistoricoUsuario(String)" style="text;align=left;verticalAlign=top;spacingLeft=4;spacingRight=4;overflow=hidden;rotatable=0;points=[[0,0.5],[1,0.5]];portConstraint=eastwest;fontStyle=0" vertex="1" parent="mRFj4ieMcZ93M_XwmbMW-44">
          <mxGeometry y="450" width="255" height="26" as="geometry" />
        </mxCell>
        <mxCell id="mRFj4ieMcZ93M_XwmbMW-135" value="+ obtenerListaHistoricoDeArchivo()" style="text;align=left;verticalAlign=top;spacingLeft=4;spacingRight=4;overflow=hidden;rotatable=0;points=[[0,0.5],[1,0.5]];portConstraint=eastwest;fontStyle=0" vertex="1" parent="mRFj4ieMcZ93M_XwmbMW-44">
          <mxGeometry y="476" width="255" height="26" as="geometry" />
        </mxCell>
        <mxCell id="mRFj4ieMcZ93M_XwmbMW-136" value="+ guardarCambiosHistoricoArchivo()" style="text;align=left;verticalAlign=top;spacingLeft=4;spacingRight=4;overflow=hidden;rotatable=0;points=[[0,0.5],[1,0.5]];portConstraint=eastwest;fontStyle=0" vertex="1" parent="mRFj4ieMcZ93M_XwmbMW-44">
          <mxGeometry y="502" width="255" height="26" as="geometry" />
        </mxCell>
        <mxCell id="mRFj4ieMcZ93M_XwmbMW-59" value="" style="endArrow=open;endSize=12;dashed=1;html=1;rounded=0;entryX=0.5;entryY=0;entryDx=0;entryDy=0;" edge="1" parent="1" source="mRFj4ieMcZ93M_XwmbMW-44" target="mRFj4ieMcZ93M_XwmbMW-16">
          <mxGeometry width="160" relative="1" as="geometry">
            <mxPoint x="650" y="1171" as="sourcePoint" />
            <mxPoint x="410" y="1170" as="targetPoint" />
            <Array as="points">
              <mxPoint x="410" y="1150" />
            </Array>
          </mxGeometry>
        </mxCell>
        <mxCell id="mRFj4ieMcZ93M_XwmbMW-60" value="Usa" style="edgeLabel;html=1;align=center;verticalAlign=middle;resizable=0;points=[];" vertex="1" connectable="0" parent="mRFj4ieMcZ93M_XwmbMW-59">
          <mxGeometry x="-0.0361" relative="1" as="geometry">
            <mxPoint as="offset" />
          </mxGeometry>
        </mxCell>
        <mxCell id="mRFj4ieMcZ93M_XwmbMW-61" value="Tiene" style="endArrow=open;html=1;endSize=12;startArrow=diamondThin;startSize=14;startFill=0;edgeStyle=orthogonalEdgeStyle;rounded=0;exitX=0.435;exitY=0;exitDx=0;exitDy=0;exitPerimeter=0;entryX=0.5;entryY=0;entryDx=0;entryDy=0;" edge="1" parent="1" source="mRFj4ieMcZ93M_XwmbMW-44" target="mRFj4ieMcZ93M_XwmbMW-19">
          <mxGeometry relative="1" as="geometry">
            <mxPoint x="1010" y="710" as="sourcePoint" />
            <mxPoint x="670" y="660" as="targetPoint" />
            <Array as="points">
              <mxPoint x="401" y="730" />
              <mxPoint x="401" y="480" />
              <mxPoint x="1007" y="480" />
            </Array>
          </mxGeometry>
        </mxCell>
        <mxCell id="mRFj4ieMcZ93M_XwmbMW-62" value="0..*" style="edgeLabel;resizable=0;html=1;align=left;verticalAlign=top;" connectable="0" vertex="1" parent="mRFj4ieMcZ93M_XwmbMW-61">
          <mxGeometry x="-1" relative="1" as="geometry">
            <mxPoint x="619" y="-240" as="offset" />
          </mxGeometry>
        </mxCell>
        <mxCell id="mRFj4ieMcZ93M_XwmbMW-63" value="1" style="edgeLabel;resizable=0;html=1;align=right;verticalAlign=top;" connectable="0" vertex="1" parent="mRFj4ieMcZ93M_XwmbMW-61">
          <mxGeometry x="1" relative="1" as="geometry">
            <mxPoint x="-587" y="189" as="offset" />
          </mxGeometry>
        </mxCell>
        <mxCell id="mRFj4ieMcZ93M_XwmbMW-64" value="Tiene" style="endArrow=open;html=1;endSize=12;startArrow=diamondThin;startSize=14;startFill=0;edgeStyle=orthogonalEdgeStyle;rounded=0;entryX=0;entryY=0.5;entryDx=0;entryDy=0;" edge="1" parent="1" source="mRFj4ieMcZ93M_XwmbMW-44" target="mRFj4ieMcZ93M_XwmbMW-3">
          <mxGeometry relative="1" as="geometry">
            <mxPoint x="830" y="690" as="sourcePoint" />
            <mxPoint x="418" y="670" as="targetPoint" />
            <Array as="points">
              <mxPoint x="460" y="586" />
            </Array>
          </mxGeometry>
        </mxCell>
        <mxCell id="mRFj4ieMcZ93M_XwmbMW-65" value="0..*" style="edgeLabel;resizable=0;html=1;align=left;verticalAlign=top;" connectable="0" vertex="1" parent="mRFj4ieMcZ93M_XwmbMW-64">
          <mxGeometry x="-1" relative="1" as="geometry">
            <mxPoint x="200" y="-144" as="offset" />
          </mxGeometry>
        </mxCell>
        <mxCell id="mRFj4ieMcZ93M_XwmbMW-66" value="1" style="edgeLabel;resizable=0;html=1;align=right;verticalAlign=top;" connectable="0" vertex="1" parent="mRFj4ieMcZ93M_XwmbMW-64">
          <mxGeometry x="1" relative="1" as="geometry">
            <mxPoint x="-207" y="124" as="offset" />
          </mxGeometry>
        </mxCell>
        <mxCell id="mRFj4ieMcZ93M_XwmbMW-67" value="CriptomonedaManager" style="swimlane;fontStyle=0;align=center;verticalAlign=top;childLayout=stackLayout;horizontal=1;startSize=26;horizontalStack=0;resizeParent=1;resizeLast=0;collapsible=1;marginBottom=0;rounded=0;shadow=0;strokeWidth=1;" vertex="1" parent="1">
          <mxGeometry x="1300" y="808" width="243" height="372" as="geometry">
            <mxRectangle x="230" y="140" width="160" height="26" as="alternateBounds" />
          </mxGeometry>
        </mxCell>
        <mxCell id="mRFj4ieMcZ93M_XwmbMW-68" value="- archivo: Archivo = Archivo.getInstancia()" style="text;align=left;verticalAlign=top;spacingLeft=4;spacingRight=4;overflow=hidden;rotatable=0;points=[[0,0.5],[1,0.5]];portConstraint=eastwest;rounded=0;shadow=0;html=0;fontStyle=2" vertex="1" parent="mRFj4ieMcZ93M_XwmbMW-67">
          <mxGeometry y="26" width="243" height="26" as="geometry" />
        </mxCell>
        <mxCell id="mRFj4ieMcZ93M_XwmbMW-69" value="" style="line;html=1;strokeWidth=1;align=left;verticalAlign=middle;spacingTop=-1;spacingLeft=3;spacingRight=3;rotatable=0;labelPosition=right;points=[];portConstraint=eastwest;" vertex="1" parent="mRFj4ieMcZ93M_XwmbMW-67">
          <mxGeometry y="52" width="243" height="8" as="geometry" />
        </mxCell>
        <mxCell id="mRFj4ieMcZ93M_XwmbMW-70" value="- crearCriptomoneda(Criptomoneda)" style="text;align=left;verticalAlign=top;spacingLeft=4;spacingRight=4;overflow=hidden;rotatable=0;points=[[0,0.5],[1,0.5]];portConstraint=eastwest;fontStyle=2" vertex="1" parent="mRFj4ieMcZ93M_XwmbMW-67">
          <mxGeometry y="60" width="243" height="26" as="geometry" />
        </mxCell>
        <mxCell id="mRFj4ieMcZ93M_XwmbMW-71" value="- modificarCriptomoneda()" style="text;align=left;verticalAlign=top;spacingLeft=4;spacingRight=4;overflow=hidden;rotatable=0;points=[[0,0.5],[1,0.5]];portConstraint=eastwest;fontStyle=2" vertex="1" parent="mRFj4ieMcZ93M_XwmbMW-67">
          <mxGeometry y="86" width="243" height="26" as="geometry" />
        </mxCell>
        <mxCell id="mRFj4ieMcZ93M_XwmbMW-72" value="- eliminarCriptomoneda()" style="text;align=left;verticalAlign=top;spacingLeft=4;spacingRight=4;overflow=hidden;rotatable=0;points=[[0,0.5],[1,0.5]];portConstraint=eastwest;fontStyle=2" vertex="1" parent="mRFj4ieMcZ93M_XwmbMW-67">
          <mxGeometry y="112" width="243" height="26" as="geometry" />
        </mxCell>
        <mxCell id="mRFj4ieMcZ93M_XwmbMW-91" value="- consultarCriptomoneda()" style="text;align=left;verticalAlign=top;spacingLeft=4;spacingRight=4;overflow=hidden;rotatable=0;points=[[0,0.5],[1,0.5]];portConstraint=eastwest;fontStyle=2" vertex="1" parent="mRFj4ieMcZ93M_XwmbMW-67">
          <mxGeometry y="138" width="243" height="26" as="geometry" />
        </mxCell>
        <mxCell id="mRFj4ieMcZ93M_XwmbMW-92" value="- buscarCriptomonedaPorNombre(String)" style="text;align=left;verticalAlign=top;spacingLeft=4;spacingRight=4;overflow=hidden;rotatable=0;points=[[0,0.5],[1,0.5]];portConstraint=eastwest;fontStyle=2" vertex="1" parent="mRFj4ieMcZ93M_XwmbMW-67">
          <mxGeometry y="164" width="243" height="26" as="geometry" />
        </mxCell>
        <mxCell id="mRFj4ieMcZ93M_XwmbMW-93" value="- buscarCriptomonedaPorSimbolo(String)" style="text;align=left;verticalAlign=top;spacingLeft=4;spacingRight=4;overflow=hidden;rotatable=0;points=[[0,0.5],[1,0.5]];portConstraint=eastwest;fontStyle=2" vertex="1" parent="mRFj4ieMcZ93M_XwmbMW-67">
          <mxGeometry y="190" width="243" height="26" as="geometry" />
        </mxCell>
        <mxCell id="mRFj4ieMcZ93M_XwmbMW-94" value="- mostrarDatosDeCriptomoneda(Criptomoneda, Long)" style="text;align=left;verticalAlign=top;spacingLeft=4;spacingRight=4;overflow=hidden;rotatable=0;points=[[0,0.5],[1,0.5]];portConstraint=eastwest;fontStyle=2" vertex="1" parent="mRFj4ieMcZ93M_XwmbMW-67">
          <mxGeometry y="216" width="243" height="26" as="geometry" />
        </mxCell>
        <mxCell id="mRFj4ieMcZ93M_XwmbMW-96" value="- modificarNombreCriptomoneda()" style="text;align=left;verticalAlign=top;spacingLeft=4;spacingRight=4;overflow=hidden;rotatable=0;points=[[0,0.5],[1,0.5]];portConstraint=eastwest;fontStyle=2" vertex="1" parent="mRFj4ieMcZ93M_XwmbMW-67">
          <mxGeometry y="242" width="243" height="26" as="geometry" />
        </mxCell>
        <mxCell id="mRFj4ieMcZ93M_XwmbMW-97" value="- modificarSimboloCriptomoneda(Criptomoneda)" style="text;align=left;verticalAlign=top;spacingLeft=4;spacingRight=4;overflow=hidden;rotatable=0;points=[[0,0.5],[1,0.5]];portConstraint=eastwest;fontStyle=2" vertex="1" parent="mRFj4ieMcZ93M_XwmbMW-67">
          <mxGeometry y="268" width="243" height="26" as="geometry" />
        </mxCell>
        <mxCell id="mRFj4ieMcZ93M_XwmbMW-98" value="- modificarPrecioCriptomoneda()" style="text;align=left;verticalAlign=top;spacingLeft=4;spacingRight=4;overflow=hidden;rotatable=0;points=[[0,0.5],[1,0.5]];portConstraint=eastwest;fontStyle=2" vertex="1" parent="mRFj4ieMcZ93M_XwmbMW-67">
          <mxGeometry y="294" width="243" height="26" as="geometry" />
        </mxCell>
        <mxCell id="mRFj4ieMcZ93M_XwmbMW-95" value="- mostrarDatosCompra()" style="text;align=left;verticalAlign=top;spacingLeft=4;spacingRight=4;overflow=hidden;rotatable=0;points=[[0,0.5],[1,0.5]];portConstraint=eastwest;fontStyle=2" vertex="1" parent="mRFj4ieMcZ93M_XwmbMW-67">
          <mxGeometry y="320" width="243" height="26" as="geometry" />
        </mxCell>
        <mxCell id="mRFj4ieMcZ93M_XwmbMW-99" value="- eliminarCriptomoneda()" style="text;align=left;verticalAlign=top;spacingLeft=4;spacingRight=4;overflow=hidden;rotatable=0;points=[[0,0.5],[1,0.5]];portConstraint=eastwest;fontStyle=2" vertex="1" parent="mRFj4ieMcZ93M_XwmbMW-67">
          <mxGeometry y="346" width="243" height="26" as="geometry" />
        </mxCell>
        <mxCell id="mRFj4ieMcZ93M_XwmbMW-73" value="MercadoManager" style="swimlane;fontStyle=0;align=center;verticalAlign=top;childLayout=stackLayout;horizontal=1;startSize=26;horizontalStack=0;resizeParent=1;resizeLast=0;collapsible=1;marginBottom=0;rounded=0;shadow=0;strokeWidth=1;" vertex="1" parent="1">
          <mxGeometry x="740" y="860" width="240" height="190" as="geometry">
            <mxRectangle x="550" y="140" width="160" height="26" as="alternateBounds" />
          </mxGeometry>
        </mxCell>
        <mxCell id="mRFj4ieMcZ93M_XwmbMW-74" value="- archivo: Archivo = Archivo.getInstancia()" style="text;align=left;verticalAlign=top;spacingLeft=4;spacingRight=4;overflow=hidden;rotatable=0;points=[[0,0.5],[1,0.5]];portConstraint=eastwest;rounded=0;shadow=0;html=0;fontStyle=2" vertex="1" parent="mRFj4ieMcZ93M_XwmbMW-73">
          <mxGeometry y="26" width="240" height="26" as="geometry" />
        </mxCell>
        <mxCell id="mRFj4ieMcZ93M_XwmbMW-75" value="" style="line;html=1;strokeWidth=1;align=left;verticalAlign=middle;spacingTop=-1;spacingLeft=3;spacingRight=3;rotatable=0;labelPosition=right;points=[];portConstraint=eastwest;" vertex="1" parent="mRFj4ieMcZ93M_XwmbMW-73">
          <mxGeometry y="52" width="240" height="8" as="geometry" />
        </mxCell>
        <mxCell id="mRFj4ieMcZ93M_XwmbMW-76" value="- consultarEstadoDelMercado()" style="text;align=left;verticalAlign=top;spacingLeft=4;spacingRight=4;overflow=hidden;rotatable=0;points=[[0,0.5],[1,0.5]];portConstraint=eastwest;fontStyle=2" vertex="1" parent="mRFj4ieMcZ93M_XwmbMW-73">
          <mxGeometry y="60" width="240" height="26" as="geometry" />
        </mxCell>
        <mxCell id="mRFj4ieMcZ93M_XwmbMW-115" value="- buscarMercadoPorSimbolo(String)" style="text;align=left;verticalAlign=top;spacingLeft=4;spacingRight=4;overflow=hidden;rotatable=0;points=[[0,0.5],[1,0.5]];portConstraint=eastwest;fontStyle=2" vertex="1" parent="mRFj4ieMcZ93M_XwmbMW-73">
          <mxGeometry y="86" width="240" height="26" as="geometry" />
        </mxCell>
        <mxCell id="mRFj4ieMcZ93M_XwmbMW-116" value="- agregarCriptomonedaEnMercado(Criptomoneda)" style="text;align=left;verticalAlign=top;spacingLeft=4;spacingRight=4;overflow=hidden;rotatable=0;points=[[0,0.5],[1,0.5]];portConstraint=eastwest;fontStyle=2" vertex="1" parent="mRFj4ieMcZ93M_XwmbMW-73">
          <mxGeometry y="112" width="240" height="26" as="geometry" />
        </mxCell>
        <mxCell id="mRFj4ieMcZ93M_XwmbMW-77" value="- mostrarDatosMercado(Mercado)" style="text;align=left;verticalAlign=top;spacingLeft=4;spacingRight=4;overflow=hidden;rotatable=0;points=[[0,0.5],[1,0.5]];portConstraint=eastwest;fontStyle=2" vertex="1" parent="mRFj4ieMcZ93M_XwmbMW-73">
          <mxGeometry y="138" width="240" height="26" as="geometry" />
        </mxCell>
        <mxCell id="mRFj4ieMcZ93M_XwmbMW-117" value="- recomendarCriptomoneda()" style="text;align=left;verticalAlign=top;spacingLeft=4;spacingRight=4;overflow=hidden;rotatable=0;points=[[0,0.5],[1,0.5]];portConstraint=eastwest;fontStyle=2" vertex="1" parent="mRFj4ieMcZ93M_XwmbMW-73">
          <mxGeometry y="164" width="240" height="26" as="geometry" />
        </mxCell>
        <mxCell id="mRFj4ieMcZ93M_XwmbMW-78" value="" style="endArrow=open;endSize=12;dashed=1;html=1;rounded=0;entryX=1;entryY=0.5;entryDx=0;entryDy=0;" edge="1" parent="1" target="mRFj4ieMcZ93M_XwmbMW-47">
          <mxGeometry width="160" relative="1" as="geometry">
            <mxPoint x="780" y="860" as="sourcePoint" />
            <mxPoint x="545" y="780" as="targetPoint" />
            <Array as="points">
              <mxPoint x="780" y="830" />
            </Array>
          </mxGeometry>
        </mxCell>
        <mxCell id="mRFj4ieMcZ93M_XwmbMW-79" value="Usa" style="edgeLabel;html=1;align=center;verticalAlign=middle;resizable=0;points=[];" vertex="1" connectable="0" parent="mRFj4ieMcZ93M_XwmbMW-78">
          <mxGeometry x="-0.0361" relative="1" as="geometry">
            <mxPoint as="offset" />
          </mxGeometry>
        </mxCell>
        <mxCell id="mRFj4ieMcZ93M_XwmbMW-80" value="" style="endArrow=open;endSize=12;dashed=1;html=1;rounded=0;entryX=1;entryY=0.5;entryDx=0;entryDy=0;exitX=0.317;exitY=0.007;exitDx=0;exitDy=0;exitPerimeter=0;" edge="1" parent="1" source="mRFj4ieMcZ93M_XwmbMW-67" target="mRFj4ieMcZ93M_XwmbMW-45">
          <mxGeometry width="160" relative="1" as="geometry">
            <mxPoint x="960" y="830" as="sourcePoint" />
            <mxPoint x="545" y="750" as="targetPoint" />
            <Array as="points">
              <mxPoint x="1157" y="779" />
            </Array>
          </mxGeometry>
        </mxCell>
        <mxCell id="mRFj4ieMcZ93M_XwmbMW-81" value="Usa" style="edgeLabel;html=1;align=center;verticalAlign=middle;resizable=0;points=[];" vertex="1" connectable="0" parent="mRFj4ieMcZ93M_XwmbMW-80">
          <mxGeometry x="-0.0361" relative="1" as="geometry">
            <mxPoint as="offset" />
          </mxGeometry>
        </mxCell>
        <mxCell id="mRFj4ieMcZ93M_XwmbMW-82" value="Usa" style="html=1;verticalAlign=bottom;endArrow=open;dashed=1;endSize=8;curved=0;rounded=0;exitX=0.5;exitY=0;exitDx=0;exitDy=0;" edge="1" parent="1" source="mRFj4ieMcZ93M_XwmbMW-38">
          <mxGeometry x="-0.0039" relative="1" as="geometry">
            <mxPoint x="1140" y="1130" as="sourcePoint" />
            <mxPoint x="1140" y="1000" as="targetPoint" />
            <mxPoint as="offset" />
          </mxGeometry>
        </mxCell>
        <mxCell id="mRFj4ieMcZ93M_XwmbMW-83" value="Usa" style="html=1;verticalAlign=bottom;endArrow=open;dashed=1;endSize=8;curved=0;rounded=0;entryX=0.75;entryY=1;entryDx=0;entryDy=0;exitX=0.14;exitY=0.014;exitDx=0;exitDy=0;exitPerimeter=0;" edge="1" parent="1" source="mRFj4ieMcZ93M_XwmbMW-38" target="mRFj4ieMcZ93M_XwmbMW-73">
          <mxGeometry relative="1" as="geometry">
            <mxPoint x="1049" y="1130" as="sourcePoint" />
            <mxPoint x="1117" y="1000" as="targetPoint" />
            <Array as="points">
              <mxPoint x="1049" y="1060" />
              <mxPoint x="920" y="1060" />
            </Array>
          </mxGeometry>
        </mxCell>
        <mxCell id="mRFj4ieMcZ93M_XwmbMW-84" value="Usa" style="html=1;verticalAlign=bottom;endArrow=open;dashed=1;endSize=8;curved=0;rounded=0;exitX=0.5;exitY=0;exitDx=0;exitDy=0;entryX=0.5;entryY=1;entryDx=0;entryDy=0;" edge="1" parent="1" target="mRFj4ieMcZ93M_XwmbMW-73">
          <mxGeometry relative="1" as="geometry">
            <mxPoint x="860" y="1135" as="sourcePoint" />
            <mxPoint x="860" y="1020" as="targetPoint" />
          </mxGeometry>
        </mxCell>
        <mxCell id="mRFj4ieMcZ93M_XwmbMW-85" value="Usa" style="endArrow=open;endSize=12;dashed=1;html=1;rounded=0;exitX=1;exitY=0.5;exitDx=0;exitDy=0;" edge="1" parent="1">
          <mxGeometry width="160" relative="1" as="geometry">
            <mxPoint x="927" y="1338" as="sourcePoint" />
            <mxPoint x="1260" y="998" as="targetPoint" />
            <Array as="points">
              <mxPoint x="1260" y="1338" />
            </Array>
          </mxGeometry>
        </mxCell>
        <mxCell id="mRFj4ieMcZ93M_XwmbMW-86" value="Usa" style="html=1;verticalAlign=bottom;endArrow=open;dashed=1;endSize=8;curved=0;rounded=0;exitX=0.65;exitY=-0.007;exitDx=0;exitDy=0;entryX=0.5;entryY=1;entryDx=0;entryDy=0;exitPerimeter=0;" edge="1" parent="1" source="mRFj4ieMcZ93M_XwmbMW-67" target="mRFj4ieMcZ93M_XwmbMW-1">
          <mxGeometry relative="1" as="geometry">
            <mxPoint x="820" y="860" as="sourcePoint" />
            <mxPoint x="820" y="650" as="targetPoint" />
            <Array as="points">
              <mxPoint x="1240" y="740" />
              <mxPoint x="767" y="740" />
            </Array>
          </mxGeometry>
        </mxCell>
        <mxCell id="mRFj4ieMcZ93M_XwmbMW-87" value="Usa" style="html=1;verticalAlign=bottom;endArrow=open;dashed=1;endSize=8;curved=0;rounded=0;exitX=0;exitY=0.5;exitDx=0;exitDy=0;entryX=1;entryY=0.5;entryDx=0;entryDy=0;" edge="1" parent="1" source="mRFj4ieMcZ93M_XwmbMW-70" target="mRFj4ieMcZ93M_XwmbMW-76">
          <mxGeometry relative="1" as="geometry">
            <mxPoint x="1040" y="921" as="sourcePoint" />
            <mxPoint x="1040" y="730" as="targetPoint" />
          </mxGeometry>
        </mxCell>
        <mxCell id="mRFj4ieMcZ93M_XwmbMW-88" value="Usa" style="html=1;verticalAlign=bottom;endArrow=open;dashed=1;endSize=8;curved=0;rounded=0;exitX=0.5;exitY=0;exitDx=0;exitDy=0;" edge="1" parent="1">
          <mxGeometry relative="1" as="geometry">
            <mxPoint x="960" y="860" as="sourcePoint" />
            <mxPoint x="960" y="670" as="targetPoint" />
          </mxGeometry>
        </mxCell>
        <mxCell id="mRFj4ieMcZ93M_XwmbMW-100" value="HistoricoManager" style="swimlane;fontStyle=0;align=center;verticalAlign=top;childLayout=stackLayout;horizontal=1;startSize=26;horizontalStack=0;resizeParent=1;resizeLast=0;collapsible=1;marginBottom=0;rounded=0;shadow=0;strokeWidth=1;" vertex="1" parent="1">
          <mxGeometry x="1620" y="810" width="243" height="150" as="geometry">
            <mxRectangle x="230" y="140" width="160" height="26" as="alternateBounds" />
          </mxGeometry>
        </mxCell>
        <mxCell id="mRFj4ieMcZ93M_XwmbMW-101" value="- archivo: Archivo = Archivo.getInstancia()" style="text;align=left;verticalAlign=top;spacingLeft=4;spacingRight=4;overflow=hidden;rotatable=0;points=[[0,0.5],[1,0.5]];portConstraint=eastwest;rounded=0;shadow=0;html=0;fontStyle=2" vertex="1" parent="mRFj4ieMcZ93M_XwmbMW-100">
          <mxGeometry y="26" width="243" height="26" as="geometry" />
        </mxCell>
        <mxCell id="mRFj4ieMcZ93M_XwmbMW-102" value="" style="line;html=1;strokeWidth=1;align=left;verticalAlign=middle;spacingTop=-1;spacingLeft=3;spacingRight=3;rotatable=0;labelPosition=right;points=[];portConstraint=eastwest;" vertex="1" parent="mRFj4ieMcZ93M_XwmbMW-100">
          <mxGeometry y="52" width="243" height="8" as="geometry" />
        </mxCell>
        <mxCell id="mRFj4ieMcZ93M_XwmbMW-103" value="- buscarSimboloDelHistorico(String)" style="text;align=left;verticalAlign=top;spacingLeft=4;spacingRight=4;overflow=hidden;rotatable=0;points=[[0,0.5],[1,0.5]];portConstraint=eastwest;fontStyle=2" vertex="1" parent="mRFj4ieMcZ93M_XwmbMW-100">
          <mxGeometry y="60" width="243" height="26" as="geometry" />
        </mxCell>
        <mxCell id="mRFj4ieMcZ93M_XwmbMW-104" value="- actualizarCantidad()" style="text;align=left;verticalAlign=top;spacingLeft=4;spacingRight=4;overflow=hidden;rotatable=0;points=[[0,0.5],[1,0.5]];portConstraint=eastwest;fontStyle=2" vertex="1" parent="mRFj4ieMcZ93M_XwmbMW-100">
          <mxGeometry y="86" width="243" height="26" as="geometry" />
        </mxCell>
        <mxCell id="mRFj4ieMcZ93M_XwmbMW-105" value="- mostrarContenido()" style="text;align=left;verticalAlign=top;spacingLeft=4;spacingRight=4;overflow=hidden;rotatable=0;points=[[0,0.5],[1,0.5]];portConstraint=eastwest;fontStyle=2" vertex="1" parent="mRFj4ieMcZ93M_XwmbMW-100">
          <mxGeometry y="112" width="243" height="26" as="geometry" />
        </mxCell>
        <mxCell id="mRFj4ieMcZ93M_XwmbMW-118" value="UsuarioTraderManager" style="swimlane;fontStyle=0;align=center;verticalAlign=top;childLayout=stackLayout;horizontal=1;startSize=26;horizontalStack=0;resizeParent=1;resizeLast=0;collapsible=1;marginBottom=0;rounded=0;shadow=0;strokeWidth=1;" vertex="1" parent="1">
          <mxGeometry x="1610" y="1030" width="243" height="150" as="geometry">
            <mxRectangle x="230" y="140" width="160" height="26" as="alternateBounds" />
          </mxGeometry>
        </mxCell>
        <mxCell id="mRFj4ieMcZ93M_XwmbMW-119" value="- archivo: Archivo = Archivo.getInstancia()" style="text;align=left;verticalAlign=top;spacingLeft=4;spacingRight=4;overflow=hidden;rotatable=0;points=[[0,0.5],[1,0.5]];portConstraint=eastwest;rounded=0;shadow=0;html=0;fontStyle=2" vertex="1" parent="mRFj4ieMcZ93M_XwmbMW-118">
          <mxGeometry y="26" width="243" height="26" as="geometry" />
        </mxCell>
        <mxCell id="mRFj4ieMcZ93M_XwmbMW-120" value="" style="line;html=1;strokeWidth=1;align=left;verticalAlign=middle;spacingTop=-1;spacingLeft=3;spacingRight=3;rotatable=0;labelPosition=right;points=[];portConstraint=eastwest;" vertex="1" parent="mRFj4ieMcZ93M_XwmbMW-118">
          <mxGeometry y="52" width="243" height="8" as="geometry" />
        </mxCell>
        <mxCell id="mRFj4ieMcZ93M_XwmbMW-121" value="- comprarCriptomoneda()" style="text;align=left;verticalAlign=top;spacingLeft=4;spacingRight=4;overflow=hidden;rotatable=0;points=[[0,0.5],[1,0.5]];portConstraint=eastwest;fontStyle=2" vertex="1" parent="mRFj4ieMcZ93M_XwmbMW-118">
          <mxGeometry y="60" width="243" height="26" as="geometry" />
        </mxCell>
        <mxCell id="mRFj4ieMcZ93M_XwmbMW-122" value="- ventaCriptomoneda()" style="text;align=left;verticalAlign=top;spacingLeft=4;spacingRight=4;overflow=hidden;rotatable=0;points=[[0,0.5],[1,0.5]];portConstraint=eastwest;fontStyle=2" vertex="1" parent="mRFj4ieMcZ93M_XwmbMW-118">
          <mxGeometry y="86" width="243" height="26" as="geometry" />
        </mxCell>
        <mxCell id="mRFj4ieMcZ93M_XwmbMW-124" value="Historico" style="swimlane;fontStyle=0;align=center;verticalAlign=top;childLayout=stackLayout;horizontal=1;startSize=26;horizontalStack=0;resizeParent=1;resizeLast=0;collapsible=1;marginBottom=0;rounded=0;shadow=0;strokeWidth=1;" vertex="1" parent="1">
          <mxGeometry x="1130" y="520" width="160" height="130" as="geometry">
            <mxRectangle x="230" y="140" width="160" height="26" as="alternateBounds" />
          </mxGeometry>
        </mxCell>
        <mxCell id="mRFj4ieMcZ93M_XwmbMW-126" value="- simbolo : String" style="text;align=left;verticalAlign=top;spacingLeft=4;spacingRight=4;overflow=hidden;rotatable=0;points=[[0,0.5],[1,0.5]];portConstraint=eastwest;rounded=0;shadow=0;html=0;" vertex="1" parent="mRFj4ieMcZ93M_XwmbMW-124">
          <mxGeometry y="26" width="160" height="26" as="geometry" />
        </mxCell>
        <mxCell id="mRFj4ieMcZ93M_XwmbMW-127" value="- capacidad : long" style="text;align=left;verticalAlign=top;spacingLeft=4;spacingRight=4;overflow=hidden;rotatable=0;points=[[0,0.5],[1,0.5]];portConstraint=eastwest;rounded=0;shadow=0;html=0;" vertex="1" parent="mRFj4ieMcZ93M_XwmbMW-124">
          <mxGeometry y="52" width="160" height="26" as="geometry" />
        </mxCell>
        <mxCell id="mRFj4ieMcZ93M_XwmbMW-128" value="" style="line;html=1;strokeWidth=1;align=left;verticalAlign=middle;spacingTop=-1;spacingLeft=3;spacingRight=3;rotatable=0;labelPosition=right;points=[];portConstraint=eastwest;" vertex="1" parent="mRFj4ieMcZ93M_XwmbMW-124">
          <mxGeometry y="78" width="160" height="8" as="geometry" />
        </mxCell>
      </root>
    </mxGraphModel>
  </diagram>
</mxfile>
